<?xml version="1.0" encoding="UTF-8" standalone="no"?>
<!-- Created with Inkscape (http://www.inkscape.org/) -->

<svg
   version="1.1"
   id="svg1224"
   width="150"
   height="150"
   viewBox="0 0 150 150"
   sodipodi:docname="bootstrap.svg"
   inkscape:version="1.1.1 (3bf5ae0d25, 2021-09-20)"
   xmlns:inkscape="http://www.inkscape.org/namespaces/inkscape"
   xmlns:sodipodi="http://sodipodi.sourceforge.net/DTD/sodipodi-0.dtd"
   xmlns="http://www.w3.org/2000/svg"
   xmlns:svg="http://www.w3.org/2000/svg">
  <defs
     id="defs1228" />
  <sodipodi:namedview
     id="namedview1226"
     pagecolor="#ffffff"
     bordercolor="#666666"
     borderopacity="1.0"
     inkscape:pageshadow="2"
     inkscape:pageopacity="0.0"
     inkscape:pagecheckerboard="0"
     showgrid="false"
     inkscape:zoom="1.1925"
     inkscape:cx="89.727463"
     inkscape:cy="77.148847"
     inkscape:window-width="1366"
     inkscape:window-height="706"
     inkscape:window-x="-8"
     inkscape:window-y="-8"
     inkscape:window-maximized="1"
     inkscape:current-layer="g1230" />
  <g
     inkscape:groupmode="layer"
     inkscape:label="Image"
     id="g1230">
    <path
       style="fill:#ff521b;fill-opacity:1;stroke:none;stroke-width:0.187524"
       d="m 29.687502,15.185673 c -6.51769,0.88991 -11.65177,5.78828 -12.83299,12.31532 -0.55571,3.07065 0.0408,6.11447 -0.0941,9.20248 -0.23935,5.48262 -0.57146,10.95415 -1.75726,16.3391 -1.13841,5.16972 -3.02023,10.94795 -7.0364499,14.61673 -1.55158,1.41756 -3.3959,2.51396 -5.42929,3.0586 -0.76331,0.20452 -2.23845005,0.16358 -2.40639005,1.1257 -0.2776,1.59016 -0.0278,3.43572 -0.0277,5.05029 3e-5,0.49957 -0.14373,1.31877 0.19245,1.7387 0.3143,0.39271 1.04187005,0.38951 1.49272005,0.49374 1.03024,0.23853 2.04745,0.55422 2.99587,1.02975 2.76378,1.38619 5.01551,3.80343 6.4950999,6.50371 4.47835,8.1733 4.85332,17.424607 5.47161,26.480597 0.16326,2.39114 -0.26723,4.75186 -0.1631,7.13662 0.16241,3.72062 1.66862,7.38113 4.16605,10.13419 4.0227,4.4339 9.42388,4.51465 14.92523,4.51465 h 11.23451 49.8063 15.728298 c 3.0189,0 6.19714,0.28903 9.17485,-0.27419 1.64586,-0.31139 3.27598,-0.9411 4.68105,-1.85646 1.12307,-0.7317 2.22724,-1.53907 3.10091,-2.56524 1.75239,-2.05835 3.06271,-4.47504 3.63698,-7.13587 0.51866,-2.40222 0.30296,-4.72012 0.19735,-7.13662 -0.10167,-2.33216 0.0376,-4.80688 0.19661,-7.13661 0.27056,-3.96082 0.70515,-7.94625 1.56066,-11.831757 1.12195,-5.0946 2.96366,-10.75451 6.85586,-14.42892 1.5659,-1.47841 3.52632,-2.68825 5.60995,-3.24641 0.76338,-0.20453 2.23846,-0.16358 2.40642,-1.12571 0.27749,-1.59015 0.0279,-3.43572 0.0277,-5.05028 0,-0.49957 0.1438,-1.31878 -0.19248,-1.7387 -0.3142,-0.39272 -1.04181,-0.38951 -1.49269,-0.49374 -1.02833,-0.23814 -2.0516,-0.5499 -2.99586,-1.03031 -2.90225,-1.47709 -5.1499,-4.04233 -6.68285,-6.87876 -4.34738,-8.04335 -4.90311,-17.54575 -5.29333,-26.4806 -0.10148,-2.32617 0.32187,-4.62526 0.16328,-6.94882 -0.26008,-3.80916 -1.77805,-7.5884 -4.4938,-10.3125 -4.10472,-4.11699 -9.19189,-4.14853 -14.5882,-4.14853 H 102.52454 53.841682 37.926142 c -2.69347,0 -5.56894,-0.28468 -8.23864,0.0798 m 56.17253,57.7643 v 0.18781 c 4.83851,0.38613 9.69744,3.00208 12.34111,7.13662 4.604818,7.20159 2.430378,17.75421 -4.47696,22.642037 -5.67323,4.01453 -12.46487,4.02636 -19.09866,4.02636 h -22.65625 v -45.636777 -12.77079 -3.56831 c 0,-0.49205 -0.11066,-1.17472 0.1129,-1.63052 0.35239,-0.71836 1.85857,-0.43534 2.50848,-0.43534 h 7.67691 c 5.60546,0 11.26541,-0.21278 16.85177,0.1709 5.1806,0.3559 10.12491,1.36403 13.98977,5.16748 6.38812,6.28736 5.36391,17.59645 -2.0063,22.63922 -1.53445,1.05003 -3.37354,1.91825 -5.24277,2.07131 m -23.40522,-21.59765 v 18.78057 c 4.4629,0 9.04303,0.28903 13.48141,-0.15606 2.31618,-0.23232 4.69958,-0.59328 6.7407,-1.80726 5.43301,-3.23082 6.00278,-12.04548 0.18724,-15.25602 -2.87042,-1.58471 -6.1831,-1.56123 -9.36209,-1.56123 h -11.04726 m 0,26.66841 v 20.65862 h 11.60899 c 3.86354,0 7.97294,-0.0629 11.42175,-2.04201 5.77641,-3.31439 6.12954,-12.88009 0.37448,-16.46285 -3.34133,-2.08034 -7.4393,-2.15376 -11.23451,-2.15376 z"
       id="path1532" />
  </g>
</svg>
