<?xml version="1.0" encoding="UTF-8" standalone="no"?>
<!-- Created with Inkscape (http://www.inkscape.org/) -->

<svg
   version="1.1"
   id="svg1781"
   width="500"
   height="500"
   viewBox="0 0 500 500"
   sodipodi:docname="contato_github.svg"
   inkscape:version="1.1.1 (3bf5ae0d25, 2021-09-20)"
   xmlns:inkscape="http://www.inkscape.org/namespaces/inkscape"
   xmlns:sodipodi="http://sodipodi.sourceforge.net/DTD/sodipodi-0.dtd"
   xmlns="http://www.w3.org/2000/svg"
   xmlns:svg="http://www.w3.org/2000/svg">
  <defs
     id="defs1785" />
  <sodipodi:namedview
     id="namedview1783"
     pagecolor="#ffffff"
     bordercolor="#666666"
     borderopacity="1.0"
     inkscape:pageshadow="2"
     inkscape:pageopacity="0.0"
     inkscape:pagecheckerboard="0"
     showgrid="false"
     inkscape:zoom="0.6631284"
     inkscape:cx="195.28646"
     inkscape:cy="224.69253"
     inkscape:window-width="1366"
     inkscape:window-height="706"
     inkscape:window-x="-8"
     inkscape:window-y="-8"
     inkscape:window-maximized="1"
     inkscape:current-layer="g1787" />
  <g
     inkscape:groupmode="layer"
     inkscape:label="Image"
     id="g1787">
    <path
       style="fill:#fffff0;fill-opacity:1;stroke:none;stroke-width:0.977659"
       d="m 187.77596,435.21753 c -25.96368,0.53576 -56.63282,6.26778 -75.93864,-16.62411 -7.68928,-9.11668 -10.61933,-21.27094 -16.991703,-31.28119 -6.452742,-10.13637 -14.87439,-15.03054 -23.229947,-23.06396 -2.575836,-2.47641 -6.457335,-7.18482 -1.976434,-9.86556 11.32148,-6.77322 29.458216,6.01945 36.990094,13.391 8.02756,7.85647 12.39378,18.51882 20.6198,26.08884 13.522,12.44462 44.2146,18.72999 60.02432,5.93928 3.54596,-2.86845 3.62124,-10.31822 5.09555,-14.44492 2.67096,-7.47127 7.6316,-13.11921 12.02716,-19.55318 -32.35952,-1.38925 -68.57199,-14.5642 -89.48997,-40.08404 -21.694241,-26.46523 -27.797372,-67.64718 -22.809455,-100.69891 1.67815,-11.12087 5.76007,-22.69734 11.664145,-32.26275 3.1901,-5.16889 10.61738,-11.68401 11.74168,-17.59787 0.93562,-4.92349 -2.92613,-11.65859 -3.69457,-16.62021 -1.89959,-12.27646 -2.35713,-38.63611 7.24054,-48.33156 4.46203,-4.507 14.69225,-1.14289 19.84451,0.4507 11.05731,3.42278 22.09508,8.45284 32.26273,13.96489 5.12977,2.78046 10.78455,8.25046 16.62019,9.16457 8.33552,1.30517 19.9677,-3.7806 28.35209,-5.12782 15.59268,-2.50378 32.12781,-3.37684 47.90527,-2.29554 11.14041,0.76257 22.28377,2.45978 33.24038,4.60868 5.06525,0.99331 11.465,3.96734 16.6202,2.61133 20.77621,-5.46512 37.97909,-27.263 61.59149,-25.61076 6.78202,0.47417 8.41178,6.93747 10.05034,12.4368 3.83829,12.87871 5.72028,26.83479 2.98674,40.08403 -0.99232,4.81106 -4.98215,11.93722 -2.61719,16.62021 8.11456,16.06295 18.86783,27.3725 22.37176,45.94999 6.29416,33.37533 -0.8007,77.33578 -23.30738,103.63189 -21.07635,24.6243 -56.78435,37.73765 -88.67362,39.10637 4.08173,6.17587 8.99153,11.54811 11.66738,18.57552 8.26904,21.71186 4.95282,47.61299 4.95282,70.39148 0,9.77757 -4.19221,31.48063 5.88453,37.16278 9.79124,5.52084 26.17386,-4.47866 35.17712,-8.39614 33.90715,-14.75092 64.88132,-38.1991 88.18088,-66.89536 73.41432,-90.4198 78.83153,-223.11261 5.3957,-315.78396 C 352.23864,-19.423367 163.58185,-26.710254 61.940958,90.103803 24.260439,133.40922 6.2326232,184.38828 0.8772422,240.66333 c -3.004712,31.57351 1.864016,65.83265 12.2342738,95.81061 19.7224,57.01123 60.238814,107.25804 113.071964,136.73544 12.57757,7.01764 25.56577,12.87675 39.10634,17.77971 5.95198,2.15574 13.7625,4.39165 19.03208,-0.60419 5.06133,-4.79836 3.96146,-11.8551 3.54205,-18.01631 -0.8359,-12.27549 -0.088,-24.84624 -0.088,-37.15106 z"
       id="path1889" />
  </g>
</svg>
