<?xml version="1.0" encoding="UTF-8" standalone="no"?>
<!-- Created with Inkscape (http://www.inkscape.org/) -->

<svg
   version="1.1"
   id="svg824"
   width="500"
   height="500"
   viewBox="0 0 500 500"
   sodipodi:docname="contato_email.svg"
   inkscape:version="1.1.1 (3bf5ae0d25, 2021-09-20)"
   xmlns:inkscape="http://www.inkscape.org/namespaces/inkscape"
   xmlns:sodipodi="http://sodipodi.sourceforge.net/DTD/sodipodi-0.dtd"
   xmlns="http://www.w3.org/2000/svg"
   xmlns:svg="http://www.w3.org/2000/svg">
  <defs
     id="defs828" />
  <sodipodi:namedview
     id="namedview826"
     pagecolor="#ffffff"
     bordercolor="#666666"
     borderopacity="1.0"
     inkscape:pageshadow="2"
     inkscape:pageopacity="0.0"
     inkscape:pagecheckerboard="0"
     showgrid="false"
     inkscape:zoom="0.35774999"
     inkscape:cx="68.48358"
     inkscape:cy="433.26347"
     inkscape:window-width="1366"
     inkscape:window-height="706"
     inkscape:window-x="-8"
     inkscape:window-y="-8"
     inkscape:window-maximized="1"
     inkscape:current-layer="g830" />
  <g
     inkscape:groupmode="layer"
     inkscape:label="Image"
     id="g830">
    <path
       style="fill:#ffffff;fill-opacity:1;stroke:none;stroke-width:1.0049"
       d="M 229.11731,0.43245098 C 183.01148,6.489118 140.58559,19.728366 102.49986,47.389066 76.379979,66.359376 54.481939,90.345486 37.234779,117.57936 22.586699,140.70919 12.603164,166.41551 6.1596689,192.9469 1.1446529,213.5966 8.9487023e-7,234.10863 8.9487023e-7,255.25073 8.9487023e-7,401.72704 136.774,516.55903 280.36725,499.15516 317.12048,494.69943 353.81542,482.19043 384.8769,461.91455 506.0066,382.84395 537.86698,214.63868 450.06479,98.486236 433.92408,77.133816 414.16473,58.126026 391.9112,43.217516 368.56234,27.575236 342.89718,15.045434 315.53876,8.172376 288.03865,1.263685 257.49973,-3.296 229.11731,0.43245098 M 244.19082,29.435006 c 21.14211,-2.49456 46.0355,2.54441 66.32344,8.33384 94.17827,26.87506 158.42559,113.258624 160.76901,210.447584 2.60672,108.05394 -83.97552,209.1811 -191.92093,220.9113 -52.45882,5.7008 -105.06336,-4.60847 -149.73017,-33.69331 C 38.300479,375.96139 2.4952389,251.82402 51.498039,153.75578 63.667679,129.40101 79.502399,107.14045 99.485159,88.527176 141.16742,49.702246 189.35843,35.904556 244.19082,29.435006 M 87.426349,138.68227 V 382.8731 H 412.00921 V 138.68227 H 87.426349 m 287.401541,22.10781 c -6.34896,9.01295 -15.52068,16.06334 -23.02226,24.11762 -20.8326,22.36305 -42.78466,43.6991 -64.40408,65.31852 -8.53562,8.53563 -21.70787,28.02769 -34.16662,29.93097 -14.40826,2.20275 -26.25403,-15.9749 -35.17152,-24.90646 -20.56429,-20.59744 -40.69646,-41.70136 -61.29892,-62.30383 -9.71337,-9.71337 -23.79002,-19.90306 -30.14702,-32.15682 h 248.21042 m -264.28882,17.08331 c 7.67643,5.40837 13.46968,13.46968 20.098,20.09801 l 41.20092,41.20092 c 4.37031,4.37031 18.8851,14.6002 18.8851,21.10291 0,6.50272 -14.51479,16.7326 -18.8851,21.10291 -14.23039,14.2304 -27.95934,28.96425 -42.20582,43.21073 -6.06156,6.06156 -12.46579,15.22926 -20.09801,19.09311 V 227.11352 c 0,-13.84452 -4.3271,-36.53316 1.00491,-49.24013 m 279.36233,2.0098 v 163.79879 c -7.28151,-3.68698 -13.31292,-12.30803 -19.09311,-18.08821 -14.25049,-14.25049 -27.96537,-28.97028 -42.20582,-43.21073 -4.37031,-4.3703 -18.8851,-14.6002 -18.8851,-21.10291 0,-6.50271 14.51479,-16.73259 18.8851,-21.10291 13.91586,-13.91586 27.28606,-28.29096 41.20092,-42.20582 6.08066,-6.08065 12.23567,-14.42133 20.09801,-18.08821 m -98.48025,97.47536 h 1.0049 c 18.26708,18.26707 36.01262,37.01751 54.26463,55.26952 8.32862,8.32862 21.12301,17.40588 26.12741,28.13722 H 126.61747 c 4.00453,-8.58688 13.4516,-15.4614 20.09801,-22.10782 13.58123,-13.58123 26.62383,-27.62873 40.19601,-41.20092 4.37032,-4.37031 14.6002,-18.88509 21.10291,-18.88509 7.05441,0 16.06836,14.66752 22.10782,18.4148 25.09337,15.57394 44.00258,-2.33137 61.29893,-19.62771 z"
       id="path932"
       sodipodi:nodetypes="ccsssccsssccscccccccccccccsccscccssssscscccssssscccsccssscc" />
  </g>
</svg>
