<?xml version="1.0" encoding="UTF-8" standalone="no"?>
<!-- Created with Inkscape (http://www.inkscape.org/) -->

<svg
   version="1.1"
   id="svg2543"
   width="500"
   height="500"
   viewBox="0 0 500 500"
   sodipodi:docname="contato_linkedin.svg"
   inkscape:version="1.1.1 (3bf5ae0d25, 2021-09-20)"
   xmlns:inkscape="http://www.inkscape.org/namespaces/inkscape"
   xmlns:sodipodi="http://sodipodi.sourceforge.net/DTD/sodipodi-0.dtd"
   xmlns="http://www.w3.org/2000/svg"
   xmlns:svg="http://www.w3.org/2000/svg">
  <defs
     id="defs2547" />
  <sodipodi:namedview
     id="namedview2545"
     pagecolor="#ffffff"
     bordercolor="#666666"
     borderopacity="1.0"
     inkscape:pageshadow="2"
     inkscape:pageopacity="0.0"
     inkscape:pagecheckerboard="0"
     showgrid="false"
     inkscape:zoom="0.65849998"
     inkscape:cx="333.33334"
     inkscape:cy="332.57404"
     inkscape:window-width="1366"
     inkscape:window-height="706"
     inkscape:window-x="-8"
     inkscape:window-y="-8"
     inkscape:window-maximized="1"
     inkscape:current-layer="g2549" />
  <g
     inkscape:groupmode="layer"
     inkscape:label="Image"
     id="g2549">
    <path
       style="fill:#ffffff;fill-opacity:1;stroke:none;stroke-width:0.997587"
       d="M 35.479525,2.1065537 C -11.062724,8.7891087 1.5614793,69.442809 1.5614793,103.43349 v 273.33957 68.83369 c 0,12.58858 -0.94884301,26.12787 6.772217,36.91082 11.1038907,15.50654 27.7986557,15.96144 45.1024467,15.96144 h 68.833677 231.44082 72.82404 c 14.10991,0 28.98098,1.35672 42.89636,-1.30784 12.42199,-2.37826 23.62492,-12.35516 27.00774,-24.6295 6.67189,-24.20352 1.92236,-54.81356 1.92236,-79.80717 V 119.39492 53.553999 c 0,-13.25417 0.82601,-26.8591 -7.88096,-37.8691 C 480.00449,2.4372447 464.00116,1.6793357 448.48166,1.6793357 H 376.65519 148.20716 74.385523 c -12.70461,0 -26.323,-1.37944796 -38.905998,0.427218 M 105.3108,70.812399 c 53.89578,-7.76962 69.45419,76.341451 14.96385,84.196471 -14.5289,2.09394 -29.354477,-1.76673 -39.440207,-12.83998 C 58.802283,117.98034 71.949313,75.621879 105.3108,70.812399 M 424.53951,424.65737 h -52.87226 c -4.69366,0 -15.52349,2.00515 -19.35025,-1.02553 -2.66955,-2.11389 -1.59913,-7.97273 -1.59913,-10.94555 v -31.92287 -76.8144 c 0,-15.54345 -0.13269,-33.14991 -10.65526,-45.79935 -18.31175,-22.01381 -57.29656,-11.04132 -66.46242,13.87647 -7.01704,19.07591 -5.68227,40.82536 -5.68227,60.85298 v 91.77825 H 195.09387 V 188.22861 h 51.87466 c 4.07716,0 15.13045,-1.93433 17.92869,1.59914 4.26669,5.38698 1.02552,23.51717 1.02552,30.32373 7.64852,-9.92302 14.85311,-19.64155 25.93734,-26.06104 39.24418,-22.73107 102.03546,-14.62665 121.8436,30.0514 11.97407,27.00874 10.83583,56.93643 10.83583,85.79271 V 424.65737 M 149.20474,188.22861 v 177.57097 42.89635 l -1.59913,14.93591 -19.35025,1.02553 H 75.383113 V 188.22861 Z"
       id="path2651" />
  </g>
</svg>
