<?xml version="1.0" encoding="UTF-8" standalone="no"?>
<svg
   width="149.9998"
   height="150"
   viewBox="0 0 149.9998 150"
   fill="none"
   version="1.1"
   id="svg1313"
   sodipodi:docname="css.svg"
   inkscape:version="1.1.1 (3bf5ae0d25, 2021-09-20)"
   xmlns:inkscape="http://www.inkscape.org/namespaces/inkscape"
   xmlns:sodipodi="http://sodipodi.sourceforge.net/DTD/sodipodi-0.dtd"
   xmlns="http://www.w3.org/2000/svg"
   xmlns:svg="http://www.w3.org/2000/svg">
  <defs
     id="defs1317" />
  <sodipodi:namedview
     id="namedview1315"
     pagecolor="#ffffff"
     bordercolor="#666666"
     borderopacity="1.0"
     inkscape:pageshadow="2"
     inkscape:pageopacity="0.0"
     inkscape:pagecheckerboard="0"
     showgrid="false"
     fit-margin-top="0"
     fit-margin-left="0"
     fit-margin-right="0"
     fit-margin-bottom="0"
     inkscape:zoom="1.8346154"
     inkscape:cx="60.230608"
     inkscape:cy="103.56394"
     inkscape:window-width="1366"
     inkscape:window-height="706"
     inkscape:window-x="-8"
     inkscape:window-y="-8"
     inkscape:window-maximized="1"
     inkscape:current-layer="svg1313" />
  <path
     d="M 136.51482,133.89375 149.9998,0 H 0 L 0.176236,1.737492 13.463955,133.9125 13.576745,135.01242 74.432532,150 h 0.958683 l 60.996495,-15 0.1129,-1.09992 z M 75.130426,29.243672 h 43.584944 l -1.31105,13.5 -42.999946,16.95 0.718947,3.050156 h 40.349419 l -4.64526,47.193752 -35.852317,8.8125 L 39.137053,109.95 36.881266,87.349922 h 14.754191 l 1.184209,11.45625 0.112632,1.112578 21.746813,5.12508 h 0.93763 L 97.123818,99.743672 97.229607,98.637422 99.259605,77.475 99.42171,75.75 H 35.647847 L 34.308375,62.168672 78.781737,45.287578 78.077001,42.225 H 32.398114 L 31.093906,29.224922 h 43.987047 z"
     fill="#8257E6"
     id="path1311"
     style="fill:#ff521b;fill-opacity:1;stroke-width:2.4835" />
</svg>
