<?xml version="1.0" encoding="UTF-8" standalone="no"?>
<!-- Created with Inkscape (http://www.inkscape.org/) -->

<svg
   version="1.1"
   id="svg1742"
   width="150"
   height="150"
   viewBox="0 0 150 150"
   sodipodi:docname="figma.svg"
   inkscape:version="1.1.1 (3bf5ae0d25, 2021-09-20)"
   xmlns:inkscape="http://www.inkscape.org/namespaces/inkscape"
   xmlns:sodipodi="http://sodipodi.sourceforge.net/DTD/sodipodi-0.dtd"
   xmlns="http://www.w3.org/2000/svg"
   xmlns:svg="http://www.w3.org/2000/svg">
  <defs
     id="defs1746" />
  <sodipodi:namedview
     id="namedview1744"
     pagecolor="#ffffff"
     bordercolor="#666666"
     borderopacity="1.0"
     inkscape:pageshadow="2"
     inkscape:pageopacity="0.0"
     inkscape:pagecheckerboard="0"
     showgrid="false"
     inkscape:zoom="0.904"
     inkscape:cx="242.80973"
     inkscape:cy="250"
     inkscape:window-width="1366"
     inkscape:window-height="706"
     inkscape:window-x="-8"
     inkscape:window-y="-8"
     inkscape:window-maximized="1"
     inkscape:current-layer="g1748" />
  <g
     inkscape:groupmode="layer"
     inkscape:label="Image"
     id="g1748">
    <g
       id="g2124"
       transform="matrix(0.49348718,0,0,0.49348718,-49.109294,-43.362304)"
       style="fill:#ff521b;fill-opacity:1">
      <path
         style="fill:#ff521b;fill-opacity:1"
         d="m 190.41093,390.51613 c -17.40512,-3.78703 -32.18513,-17.33239 -37.42569,-34.29934 -2.67121,-8.64838 -2.68033,-21.75702 -0.0211,-30.36145 4.69418,-15.189 16.23999,-26.97503 31.72625,-32.38635 3.52871,-1.23303 6.65031,-2.47634 6.93688,-2.76292 0.28657,-0.28657 -1.87482,-1.2194 -4.80311,-2.07294 -6.19309,-1.80519 -15.8607,-7.38371 -20.70549,-11.94774 -5.1285,-4.8313 -10.91752,-14.29434 -13.13342,-21.4686 -2.47618,-8.01694 -2.6574,-21.56266 -0.39178,-29.28529 4.54273,-15.48446 16.61492,-28.03168 32.23685,-33.50535 l 6.3303,-2.21804 -3.8303,-1.22542 c -17.26037,-5.52209 -30.71541,-19.05073 -35.71879,-35.91419 -2.29666,-7.74071 -2.11392,-21.23125 0.39775,-29.3631 5.02019,-16.25348 19.2723,-29.768011 36.12215,-34.252764 8.12531,-2.162629 116.54982,-2.087504 125.77551,0.08715 22.74941,5.362418 39.12107,26.274724 39.0812,49.920314 -0.0366,21.72112 -13.7765,40.76718 -34.67851,48.07091 -3.52871,1.23303 -6.63792,2.46396 -6.90936,2.73539 -0.27143,0.27144 1.18717,0.80882 3.24135,1.19419 5.22312,0.97986 14.98436,6.07071 20.56176,10.72372 22.51745,18.78545 22.62727,55.79978 0.22464,75.71266 -25.17488,22.37705 -64.27736,14.03278 -79.24555,-16.9106 l -4.1051,-8.48637 -0.0857,19 c -0.0471,10.45 -0.0476,30.25 -9.7e-4,44 0.0466,13.75 -0.39164,28.375 -0.97386,32.5 -2.952,20.91458 -19.06068,38.14706 -39.75957,42.53334 -8.17117,1.73155 -12.82674,1.72771 -20.84634,-0.0172 z m 64.93829,-169.28537 c 4.45889,-11.53713 13.27544,-20.70091 25.6254,-26.63462 L 289.5,190.5 272.03513,190.22546 c -9.60567,-0.15099 -18.04317,-0.0526 -18.75,0.21862 -0.98181,0.37676 -1.28513,4.7961 -1.28513,18.72454 0,10.08171 0.37979,17.80672 0.84962,17.28138 0.46729,-0.5225 1.59211,-2.87116 2.4996,-5.21924 z"
         id="path2138" />
      <path
         style="fill:#ff521b;fill-opacity:1"
         d="m 190.41093,390.51613 c -17.40512,-3.78703 -32.18513,-17.33239 -37.42569,-34.29934 -2.67121,-8.64838 -2.68033,-21.75702 -0.0211,-30.36145 4.69418,-15.189 16.23999,-26.97503 31.72625,-32.38635 3.52871,-1.23303 6.65031,-2.47634 6.93688,-2.76292 0.28657,-0.28657 -1.87482,-1.2194 -4.80311,-2.07294 -6.19309,-1.80519 -15.8607,-7.38371 -20.70549,-11.94774 -5.1285,-4.8313 -10.91752,-14.29434 -13.13342,-21.4686 -2.47618,-8.01694 -2.6574,-21.56266 -0.39178,-29.28529 4.94989,-16.87232 20.08082,-31.1216 37.25731,-35.08641 l 5.19537,-1.19924 -7.32808,-2.11363 c -22.42542,-6.46815 -36.6697,-25.32824 -36.70619,-48.60072 -0.0374,-23.87235 17.83236,-45.188471 41.22281,-49.172945 4.39398,-0.748499 23.58883,-0.781135 64.26532,-0.109267 56.58263,0.934596 58.13108,1.01242 63.36383,3.184634 13.42437,5.572713 24.1938,16.575058 28.6855,29.305898 9.95591,28.21804 -6.54692,58.4621 -35.6424,65.3204 -4.88084,1.15049 -12.88364,1.51374 -33.59791,1.525 -14.95504,0.008 -27.33004,0.35228 -27.5,0.76478 -0.16996,0.4125 -0.084,9.075 0.19098,19.25 0.43949,16.26105 0.65615,18.13693 1.79024,15.5 6.63999,-15.43891 14.01409,-23.57625 27.0334,-29.83142 7.83015,-3.76202 9.55202,-4.2035 17.65473,-4.5266 10.60733,-0.42298 17.81529,0.99212 26.02163,5.10869 31.82841,15.96618 37.5199,59.00974 10.92801,82.6463 -25.17488,22.37705 -64.27736,14.03278 -79.24555,-16.9106 l -4.1051,-8.48637 -0.0857,19 c -0.0471,10.45 -0.0476,30.25 -9.7e-4,44 0.0466,13.75 -0.39164,28.375 -0.97386,32.5 -2.952,20.91458 -19.06068,38.14706 -39.75957,42.53334 -8.17117,1.73155 -12.82674,1.72771 -20.84634,-0.0172 z"
         id="path2136" />
      <path
         style="fill:#ff521b;fill-opacity:1"
         d="m 190.41093,390.51613 c -17.40512,-3.78703 -32.18513,-17.33239 -37.42569,-34.29934 -2.67121,-8.64838 -2.68033,-21.75702 -0.0211,-30.36145 4.76567,-15.42031 16.12962,-26.87503 32.43383,-32.69291 6.82415,-2.43508 8.20792,-2.55091 35.36456,-2.96039 21.47541,-0.32381 28.61973,-0.12969 29.75,0.80835 1.24399,1.03242 1.48424,5.26592 1.46767,25.86205 -0.0109,13.54516 -0.47016,27.77756 -1.0206,31.62756 -2.91869,20.41471 -19.24343,37.69791 -39.70232,42.03334 -8.17117,1.73155 -12.82674,1.72771 -20.84634,-0.0172 z M 293,289.8807 c -14.68557,-2.36435 -29.5831,-13.93681 -36.53522,-28.3807 -3.60478,-7.48938 -3.87693,-8.7021 -4.26379,-19 -0.35279,-9.39098 -0.0932,-11.9452 1.77487,-17.46183 4.77802,-14.11023 13.33764,-23.88159 26.41819,-30.15808 7.1042,-3.40884 9.34404,-3.98216 17.70245,-4.5312 11.1135,-0.73002 17.43983,0.44862 26.4035,4.91915 17.54147,8.74861 27.66712,25.11966 27.66712,44.73196 0,24.91389 -17.89097,46.10921 -42.16712,49.95514 -7.39062,1.17085 -9.31765,1.16241 -17,-0.0744 z M 187.94498,187.72058 C 178.09564,184.7195 171.7639,180.9442 165,174.03965 c -9.23628,-9.42836 -13.96648,-21.30046 -13.98813,-35.10815 -0.0374,-23.87235 17.83236,-45.188471 41.22281,-49.172945 4.39398,-0.748499 23.58883,-0.781135 64.26532,-0.109267 56.58263,0.934596 58.13108,1.01242 63.36383,3.184634 13.42437,5.572713 24.1938,16.575058 28.6855,29.305898 9.95699,28.22112 -6.71615,58.74162 -35.65236,65.26234 -4.95311,1.11617 -18.92383,1.57458 -61.89697,2.03098 l -55.5,0.58944 z"
         id="path2134" />
      <path
         style="fill:#ff521b;fill-opacity:1"
         d="m 190.41093,390.51613 c -17.40512,-3.78703 -32.18513,-17.33239 -37.42569,-34.29934 -2.67121,-8.64838 -2.68033,-21.75702 -0.0211,-30.36145 4.76567,-15.42031 16.12962,-26.87503 32.43383,-32.69291 6.82415,-2.43508 8.20792,-2.55091 35.36456,-2.96039 21.47541,-0.32381 28.61973,-0.12969 29.75,0.80835 1.24399,1.03242 1.48424,5.26592 1.46767,25.86205 -0.0109,13.54516 -0.47016,27.77756 -1.0206,31.62756 -2.91869,20.41471 -19.24343,37.69791 -39.70232,42.03334 -8.17117,1.73155 -12.82674,1.72771 -20.84634,-0.0172 z M 293,289.8807 c -14.68557,-2.36435 -29.5831,-13.93681 -36.53522,-28.3807 -3.60478,-7.48938 -3.87693,-8.7021 -4.26379,-19 -0.35279,-9.39098 -0.0932,-11.9452 1.77487,-17.46183 4.77802,-14.11023 13.33764,-23.88159 26.41819,-30.15808 7.1042,-3.40884 9.34404,-3.98216 17.70245,-4.5312 11.1135,-0.73002 17.43983,0.44862 26.4035,4.91915 17.54147,8.74861 27.66712,25.11966 27.66712,44.73196 0,24.91389 -17.89097,46.10921 -42.16712,49.95514 -7.39062,1.17085 -9.31765,1.16241 -17,-0.0744 z M 191.34528,188.10971 c -10.37616,-2.57397 -17.99634,-6.74957 -25.08506,-13.74575 -26.53777,-26.19137 -16.14754,-70.22416 19.47355,-82.52703 L 192.5,89.5 l 54,0.265056 c 29.7,0.145781 57.375,0.715924 61.5,1.266985 32.77873,4.378927 51.67045,38.478709 38.00942,68.607449 -5.22348,11.52015 -17.85738,22.45961 -30.50942,26.41754 -4.07879,1.27597 -39.69153,2.61417 -91,3.41945 -22.47129,0.35269 -26.97104,0.16719 -33.15472,-1.36677 z"
         id="path2132" />
      <path
         style="fill:#ff521b;fill-opacity:1"
         d="m 184.88728,388.62348 c -29.66344,-10.47139 -42.58761,-43.89145 -27.74375,-71.74139 6.30763,-11.83433 20.60848,-22.36966 33.74729,-24.86138 C 193.85101,291.45932 208.58656,291 223.63649,291 H 251 l -0.0245,28.75 c -0.0137,16.18098 -0.47754,30.71733 -1.06084,33.25 -3.75274,16.29425 -17.50115,31.01209 -33.62011,35.99073 -9.35709,2.89011 -22.61915,2.73503 -31.40732,-0.36725 z m 6.458,-200.51377 c -10.37616,-2.57397 -17.99634,-6.74957 -25.08506,-13.74575 -26.53777,-26.19137 -16.14754,-70.22416 19.47355,-82.52703 L 192.5,89.5 l 54,0.265056 c 29.7,0.145781 57.375,0.715924 61.5,1.266985 32.77873,4.378927 51.67045,38.478709 38.00942,68.607449 -5.22348,11.52015 -17.85738,22.45961 -30.50942,26.41754 -4.07879,1.27597 -39.69153,2.61417 -91,3.41945 -22.47129,0.35269 -26.97104,0.16719 -33.15472,-1.36677 z"
         id="path2130" />
      <path
         style="fill:#ff521b;fill-opacity:1"
         d="m 184.88728,388.62348 c -29.66344,-10.47139 -42.58761,-43.89145 -27.74375,-71.74139 6.30763,-11.83433 20.60848,-22.36966 33.74729,-24.86138 C 193.85101,291.45932 208.58656,291 223.63649,291 H 251 l -0.0245,28.75 c -0.0137,16.18098 -0.47754,30.71733 -1.06084,33.25 -3.75274,16.29425 -17.50115,31.01209 -33.62011,35.99073 -9.35709,2.89011 -22.61915,2.73503 -31.40732,-0.36725 z m 8.23325,-201.14019 c -20.02654,-3.62624 -35.96893,-18.87822 -40.01545,-38.28251 -4.53556,-21.74944 6.56861,-44.45007 26.3303,-53.82793 10.31053,-4.892839 15.08871,-5.436984 45.13069,-5.13953 L 251.5,90.5 l 0.26205,48 c 0.2415,44.23738 0.12854,48.09798 -1.44113,49.25 -2.40587,1.76572 -47.12756,1.55719 -57.20039,-0.26671 z"
         id="path2128" />
      <path
         style="fill:#ff521b;fill-opacity:1"
         d="m 184.88728,388.62348 c -29.66344,-10.47139 -42.58761,-43.89145 -27.74375,-71.74139 6.30763,-11.83433 20.60848,-22.36966 33.74729,-24.86138 C 193.85101,291.45932 208.58656,291 223.63649,291 H 251 l -0.0245,28.75 c -0.0137,16.18098 -0.47754,30.71733 -1.06084,33.25 -3.75274,16.29425 -17.50115,31.01209 -33.62011,35.99073 -9.35709,2.89011 -22.61915,2.73503 -31.40732,-0.36725 z"
         id="path2126" />
    </g>
  </g>
</svg>
