<?xml version="1.0" encoding="UTF-8" standalone="no"?>
<!-- Created with Inkscape (http://www.inkscape.org/) -->

<svg
   version="1.1"
   id="svg4403"
   width="150"
   height="150"
   viewBox="0 0 150 150"
   sodipodi:docname="java.svg"
   inkscape:version="1.1.1 (3bf5ae0d25, 2021-09-20)"
   xmlns:inkscape="http://www.inkscape.org/namespaces/inkscape"
   xmlns:sodipodi="http://sodipodi.sourceforge.net/DTD/sodipodi-0.dtd"
   xmlns="http://www.w3.org/2000/svg"
   xmlns:svg="http://www.w3.org/2000/svg">
  <defs
     id="defs4407" />
  <sodipodi:namedview
     id="namedview4405"
     pagecolor="#ffffff"
     bordercolor="#666666"
     borderopacity="1.0"
     inkscape:pageshadow="2"
     inkscape:pageopacity="0.0"
     inkscape:pagecheckerboard="0"
     showgrid="false"
     inkscape:zoom="0.85742188"
     inkscape:cx="256"
     inkscape:cy="255.41686"
     inkscape:window-width="1366"
     inkscape:window-height="706"
     inkscape:window-x="-8"
     inkscape:window-y="-8"
     inkscape:window-maximized="1"
     inkscape:current-layer="g4409" />
  <g
     inkscape:groupmode="layer"
     inkscape:label="Image"
     id="g4409">
    <path
       style="fill:#ff521b;stroke:none;stroke-width:0.293632;fill-opacity:1"
       d="M 88.989339,-8.7912302e-6 C 92.671779,18.988831 74.621619,28.401561 62.856069,39.651791 c -8.00382,7.65352 -12.83672,17.42912 -6.62052,27.8836 1.56799,2.63711 3.55089,4.90777 5.73963,7.04277 3.02088,2.94719 6.74209,5.82801 10.57076,7.63884 -6.07173,-8.72205 -16.00032,-18.33322 -9.83991,-29.95048 7.07683,-13.34529 23.59687,-19.08786 28.63119,-34.06134 1.75534,-5.22054 2.40544,-14.2664398 -2.34788,-18.2051897912302 M 102.49642,30.831371 l 0.29363,0.29363 -0.29363,-0.29363 m -22.022411,55.79012 c 1.90508,-0.49507 3.53591,-2.06159 4.98029,-3.35563 1.27525,-1.14282 2.40367,-2.54667 3.3295,-3.98518 6.22823,-9.67547 -5.78074,-16.38056 -5.66153,-25.83963 0.12627,-10.01932 11.16566,-17.80997 19.080521,-22.02242 -3.222911,-0.67652 -9.308441,3.40085 -12.038921,4.99527 -3.02735,1.76738 -5.99832,3.7077 -8.51534,6.16716 -1.7151,1.67576 -3.24727,3.4863 -4.44177,5.57461 -3.04144,5.3168 -3.07286,11.35182 -0.22111,16.73703 2.35024,4.43884 6.156,8.53031 6.39414,13.80072 0.13889,3.0708 -1.80496,5.27598 -2.90578,7.92807 m 31.418641,-4.40449 c 1.8443,0 3.55589,-0.0217 5.28538,0.72469 7.0968,3.06317 5.87059,11.55648 1.90332,16.59961 -2.22279,2.825629 -5.10949,5.121239 -8.0696,7.122049 -1.65931,1.12138 -3.68332,1.91096 -4.99174,3.44871 2.53757,-0.11598 5.03403,-1.27201 7.3408,-2.26654 7.52814,-3.24611 19.44462,-10.702899 15.06921,-20.636769 -1.98907,-4.51636 -7.10561,-6.64842 -11.83925,-6.44846 -1.49371,0.0631 -3.79109,0.1568 -4.69812,1.45671 m -4.11085,9.39623 c -3.51067,-4.09793 -8.981331,-1.65226 -13.507081,-0.90438 -12.34078,2.03927 -25.18454,2.01754 -37.58492,0.62543 -3.05554,-0.34296 -6.15365,-0.80044 -9.1026,-1.69455 -0.96312,-0.29216 -2.53199,-0.73144 -2.83473,-1.85546 -0.37526,-1.39299 1.86839,-2.24041 2.83473,-2.61186 3.40789,-1.31048 7.00019,-1.96939 10.57076,-2.66177 -1.68809,-0.70824 -4.10058,-0.0843 -5.87265,0.17001 -4.3713,0.62778 -8.72968,1.33426 -12.91981,2.76719 -1.62555,0.55584 -5.59516,1.97145 -4.39186,4.39098 0.74318,1.494 2.94748,2.15173 4.39186,2.71081 4.18249,1.61909 8.79252,2.30442 13.21345,2.919 18.09802,2.51613 37.74906,1.82374 55.202851,-3.8554 m -6.45991,15.562509 c -1.523361,-1.00481 -3.457811,-2.49558 -5.285381,-2.81006 -3.41553,-0.58785 -8.52825,1.42412 -12.03892,1.84548 -7.12146,0.85447 -14.60409,1.09172 -21.72878,0.16649 -3.50098,-0.45484 -14.10169,-0.97192 -10.57076,-6.24908 -2.83267,0.22551 -5.9945,0.95401 -8.51504,2.29738 -1.19831,0.63865 -2.48266,1.80026 -1.75269,3.27723 1.87807,3.79901 10.10711,4.59387 13.79132,5.16528 11.16184,1.73096 22.61672,1.72568 33.7677,-0.0969 3.81252,-0.62309 9.26175,-1.06119 12.332551,-3.59582 m -6.459911,17.03067 v -0.29363 c -2.0287,-1.07969 -4.45381,-3.26196 -6.75354,-3.58584 -2.37255,-0.33445 -5.50766,0.94491 -7.92807,1.18716 -5.09657,0.51003 -10.17083,0.39053 -15.26887,0.0423 -2.7531,-0.18793 -9.2365,-0.52355 -8.80897,-4.39714 -2.40602,0.19644 -10.86087,2.23248 -7.54106,6.11195 2.49998,2.92135 8.08751,3.59846 11.65191,4.18866 11.53417,1.91067 23.79596,1.1989 34.6486,-3.25344 m 22.609681,3.22995 c -4.05682,5.62688 -12.01484,7.16345 -18.498831,8.2452 -15.50847,2.58778 -31.11356,2.62154 -46.68752,0.87208 -5.31797,-0.59724 -10.82504,-1.67957 -15.85614,-3.52446 -1.68985,-0.61957 -4.43237,-1.52719 -4.8922,-3.53857 -1.07,-4.67873 8.03025,-5.89202 10.47122,-7.63326 -4.91717,-0.82863 -13.09647,2.24717 -17.3243,4.66083 -1.85858,1.06089 -4.49287,2.81475 -3.99055,5.32267 0.94637,4.72483 10.12775,6.16627 13.97404,6.98521 21.18439,4.51166 43.88099,4.51665 65.18635,0.91907 5.465671,-0.92288 11.762611,-2.17053 16.443401,-5.29243 2.63506,-1.75738 4.12642,-4.81644 1.17453,-7.01634 m 7.63444,7.34081 c -7.54253,6.07965 -16.99073,8.81542 -26.426901,10.39869 -13.29772,2.23072 -26.78572,2.80448 -40.22761,2.21604 -4.30612,-0.1888 -8.63631,-0.69444 -12.91982,-1.20859 -2.02136,-0.24283 -4.13698,-0.86475 -6.16627,-0.54175 v 0.29363 c 21.92874,5.02728 44.62123,5.5611 66.654511,0.64805 5.4871,-1.22357 11.25433,-3.03205 15.85584,-6.35273 1.56565,-1.1299 4.06563,-3.29015 3.23025,-5.45334 z"
       id="path4529" />
  </g>
</svg>
