<?xml version="1.0" encoding="UTF-8" standalone="no"?>
<!-- Uploaded to: SVG Repo, www.svgrepo.com, Generator: SVG Repo Mixer Tools -->

<svg
   width="150.00002"
   height="150"
   viewBox="-18.458 -22.75 35.840816 35.840812"
   version="1.1"
   id="svg850"
   sodipodi:docname="mysql.svg"
   inkscape:version="1.1.1 (3bf5ae0d25, 2021-09-20)"
   xmlns:inkscape="http://www.inkscape.org/namespaces/inkscape"
   xmlns:sodipodi="http://sodipodi.sourceforge.net/DTD/sodipodi-0.dtd"
   xmlns="http://www.w3.org/2000/svg"
   xmlns:svg="http://www.w3.org/2000/svg">
  <defs
     id="defs854" />
  <sodipodi:namedview
     id="namedview852"
     pagecolor="#ffffff"
     bordercolor="#666666"
     borderopacity="1.0"
     inkscape:pageshadow="2"
     inkscape:pageopacity="0.0"
     inkscape:pagecheckerboard="0"
     showgrid="false"
     fit-margin-top="0"
     fit-margin-left="0"
     fit-margin-right="0"
     fit-margin-bottom="0"
     inkscape:zoom="2.385"
     inkscape:cx="96.226415"
     inkscape:cy="94.339623"
     inkscape:window-width="1366"
     inkscape:window-height="706"
     inkscape:window-x="-8"
     inkscape:window-y="-8"
     inkscape:window-maximized="1"
     inkscape:current-layer="svg850" />
  <path
     d="M -18.458,-22.75 H 17.382815 V 13.090812 H -18.458 Z"
     fill="none"
     id="path840"
     style="stroke-width:0.225215" />
  <path
     d="m -9.8043278,5.2784506 h -1.3829432 c -0.04889,-2.2914587 -0.183602,-4.44572092 -0.403804,-6.4643555 h -0.01283 l -2.105549,6.4643555 h -1.05291 l -2.092992,-6.4643555 h -0.0114 c -0.155268,1.93809882 -0.253069,4.0928856 -0.293689,6.4643555 h -1.260556 c 0.08124,-2.8838038 0.285408,-5.58738368 0.611707,-8.1110054 h 1.714044 l 1.994921,5.9598939 h 0.01283 l 2.007221,-5.9598939 h 1.640017 c 0.359165,2.95594252 0.5713577,5.6597872 0.6365633,8.1110054 m 5.9975746,-5.98429063 C -4.3691888,2.2936496 -5.112105,4.4730949 -6.0340764,5.8335422 -6.7524068,6.880766 -7.5394062,7.4049026 -8.3964429,7.4049026 c -0.2284832,0 -0.5104137,-0.067678 -0.8444658,-0.2019945 V 6.479663 c 0.1632919,0.02309 0.3548894,0.0362 0.5750919,0.0362 0.4003267,0 0.7220789,-0.1080802 0.9673944,-0.3247652 0.2934323,-0.2639045 0.4401485,-0.5606006 0.4401485,-0.8887764 0,-0.2250801 -0.1144483,-0.6852081 -0.3426038,-1.381958 l -1.5176298,-4.62646653 h 1.358628 l 1.089254,3.46014423 c 0.2447882,0.7856807 0.3468652,1.334214 0.3059888,1.6466499 0.5956584,-1.5616553 1.0117485,-3.2644462 1.2487975,-5.10705693 h 1.3097131 z"
     fill="#5d87a1"
     id="path842"
     style="fill:#ff521b;fill-opacity:1;stroke-width:0.264772" />
  <path
     d="m 14.601804,5.2784506 h -3.92837 v -8.1110054 h 1.321486 v 7.1125749 h 2.606884 z M 9.6451104,5.4744114 8.1261406,4.7385742 C 8.2608276,4.6299694 8.3896425,4.5124449 8.5056158,4.3762956 9.1512584,3.6318007 9.4732814,2.530799 9.4732814,1.0725003 c 0,-2.6833812 -1.0726929,-4.0257264 -3.2188619,-4.0257264 -1.0523683,0 -1.8733317,0.3405051 -2.4604385,1.021778 -0.6451149,0.7450186 -0.9671379,1.84208599 -0.9671379,3.2925114 0,1.4257698 0.2854081,2.4716826 0.856495,3.1351172 0.5224429,0.6009999 1.3099982,0.9018931 2.3631789,0.9018931 0.3928298,0 0.7533348,-0.047217 1.0817714,-0.1424458 l 1.977547,1.130121 z M 4.7244897,3.6554109 C 4.3899102,3.1270763 4.2226276,2.2786963 4.2226276,1.1089635 c 0,-2.04224394 0.6320025,-3.0645465 1.8973758,-3.0645465 0.6614056,0 1.1461646,0.2444923 1.4561726,0.7324276 0.3340379,0.52912096 0.502133,1.36989053 0.502133,2.523358 0,2.0590367 -0.6325442,3.0886841 -1.8971193,3.0886841 -0.6616764,2.628e-4 -1.1464354,-0.243442 -1.4567,-0.7334758 M 2.250953,3.0302761 c 0,0.6878313 -0.2570739,1.2521043 -0.7707087,1.6941322 -0.51416212,0.4401902 -1.20363102,0.6608104 -2.06760868,0.6608104 -0.80812172,0 -1.59165772,-0.2534109 -2.35006642,-0.7576106 L -2.5822706,3.93112 c 0.6525833,0.32083 1.2434386,0.4803277 1.77390559,0.4803277 0.49785716,0 0.88695279,-0.108343 1.16915409,-0.3231914 0.2819447,-0.2156358 0.4500254,-0.5181028 0.4500254,-0.900581 0,-0.4819016 -0.3423186,-0.8937639 -0.97033042,-1.2387287 C -0.73861284,1.6367734 -1.8968209,0.98409414 -1.8968209,0.98409414 -2.5245476,0.53498426 -2.8388172,0.05282086 -2.8388172,-0.74151669 c 0,-0.65740081 0.2343553,-1.18809571 0.7033652,-1.59182281 0.4695231,-0.405301 1.0753578,-0.6072955 1.81800314,-0.6072955 0.76696024,0 1.46418266,0.2017327 2.09219446,0.6009999 l -0.3185454,0.69675 C 0.91904868,-1.866915 0.38885238,-1.9789304 -0.13413208,-1.9789304 c -0.42355841,0 -0.7506553,0.099948 -0.97808382,0.3006314 -0.2292814,0.199896 -0.3706528,0.4556682 -0.3706528,0.76941526 0,0.47954024 0.3495447,0.89664683 0.99465958,1.24843187 C 0.09864118,0.65224594 1.2856965,1.3162052 1.2856965,1.3162052 1.9294717,1.7645286 2.250953,2.2422322 2.250953,3.0302761"
     fill="#f8981d"
     id="path844"
     style="fill:#ff521b;fill-opacity:1;stroke-width:0.264772" />
  <path
     d="m 16.260805,-5.5492514 c -0.799043,-0.019938 -1.417691,0.059028 -1.936927,0.2746609 -0.149923,0.058766 -0.388297,0.058766 -0.409135,0.2447541 0.08096,0.078694 0.09036,0.2056678 0.160613,0.3142726 0.119722,0.1959608 0.328422,0.4596034 0.518965,0.5970648 0.209242,0.1573981 0.419297,0.3132224 0.639499,0.4504209 0.388298,0.2358354 0.828432,0.3730349 1.206838,0.6080829 0.220459,0.1366739 0.439607,0.3134853 0.660337,0.4606527 0.108462,0.078432 0.177986,0.2056669 0.318816,0.254723 v -0.029907 c -0.07055,-0.08814 -0.09065,-0.2156358 -0.159814,-0.3137471 l -0.299832,-0.2838423 c -0.289684,-0.3819536 -0.649661,-0.7153757 -1.037945,-0.989249 -0.319614,-0.2161605 -1.018703,-0.5099707 -1.148316,-0.8714618 l -0.02038,-0.019938 c 0.219676,-0.0202 0.480227,-0.098374 0.688942,-0.1584475 0.339653,-0.087878 0.649376,-0.06794 0.997852,-0.1558242 0.160342,-0.039352 0.319344,-0.088673 0.480227,-0.1371995 v -0.088401 c -0.180652,-0.1765486 -0.309467,-0.4110719 -0.499468,-0.5779144 -0.508276,-0.4310097 -1.068402,-0.8525752 -1.647243,-1.2054094 -0.309993,-0.1964854 -0.70871,-0.3229296 -1.038743,-0.4900338 -0.118866,-0.059028 -0.319343,-0.088139 -0.389366,-0.1862537 -0.179041,-0.2156358 -0.279793,-0.4994781 -0.409676,-0.7547257 -0.288615,-0.5385653 -0.568935,-1.1361547 -0.817999,-1.7056741 -0.180124,-0.381953 -0.289684,-0.763382 -0.509359,-1.116742 -1.028852,-1.665799 -2.1461686,-2.674724 -3.8634345,-3.665022 -0.3690423,-0.206191 -0.8081218,-0.294073 -1.2771174,-0.402153 l -0.749059,-0.03883 c -0.1598143,-0.06874 -0.3198851,-0.255248 -0.4593752,-0.343391 -0.5697472,-0.352573 -2.0366093,-1.116742 -2.4556354,-0.107818 -0.2699155,0.637726 0.3992435,1.264696 0.6290665,1.58815 0.1696913,0.224555 0.3896372,0.480065 0.50829,0.73505 0.070265,0.16658 0.090076,0.343391 0.1603416,0.519415 0.1598,0.431272 0.3091814,0.911075 0.5192361,1.31349 0.1096024,0.205142 0.2290248,0.420778 0.3690565,0.606508 0.080099,0.108605 0.2196609,0.156612 0.2501329,0.333685 -0.1392478,0.195174 -0.1501938,0.489771 -0.2300938,0.734788 -0.3591652,1.1072977 -0.2188627,2.479024 0.2902255,3.2927738 0.1592726,0.2450169 0.5392751,0.7843687 1.0475652,0.5776525 0.4500255,-0.1762867 0.3503429,-0.7347879 0.4796851,-1.2245598 0.029645,-0.1183109 0.00998,-0.1959608 0.06998,-0.2736106 v 0.019152 c 0.1392478,0.2741352 0.2798068,0.5383016 0.4088782,0.8132242 0.309723,0.479803 0.8490125,0.9798057 1.2982255,1.3121786 0.239187,0.177335 0.4286466,0.4805895 0.7282216,0.5889325 v -0.029383 h -0.01981 C 9.2523514,-5.167033 9.1636724,-5.206386 9.0840424,-5.2745925 8.9039186,-5.451141 8.7045677,-5.6667768 8.5648068,-5.8624748 8.1463081,-6.4115336 7.775926,-7.0193537 7.4472186,-7.646586 7.2863496,-7.9508888 7.1476435,-8.2835244 7.0180447,-8.5873036 6.9576137,-8.7045652 6.9576137,-8.8813766 6.8574323,-8.9404007 6.7072385,-8.7250267 6.4883757,-8.5385102 6.3788161,-8.2746048 6.1888006,-7.8525147 6.1690323,-7.3333636 6.0984819,-6.7934872 l -0.039337,0.018891 C 5.7411268,-6.8530291 5.6304982,-7.1759625 5.5097075,-7.4500987 5.2106597,-8.146324 5.1604194,-9.2638519 5.4199162,-10.067109 c 0.06941,-0.205405 0.3701112,-0.852312 0.250133,-1.048011 -0.060146,-0.187566 -0.2600243,-0.294335 -0.3695982,-0.442027 -0.1288434,-0.18573 -0.2699012,-0.420778 -0.3596925,-0.626971 -0.2394435,-0.548533 -0.3599634,-1.156353 -0.6178497,-1.704625 -0.1205769,-0.255509 -0.3297764,-0.519939 -0.4991969,-0.75525 -0.1902721,-0.264429 -0.3995286,-0.450684 -0.5499789,-0.764169 -0.049742,-0.107817 -0.1194367,-0.284104 -0.03948,-0.401366 0.019526,-0.07869 0.060146,-0.10808 0.1398179,-0.127755 0.129271,-0.107293 0.4989404,0.02912 0.6285392,0.08814 0.3701254,0.146905 0.6795919,0.284104 0.9885167,0.489771 0.1398179,0.09837 0.2896839,0.284628 0.4689957,0.333684 h 0.2100549 c 0.3188019,0.06821 0.6782379,0.01889 0.9783404,0.107556 0.5288708,0.166843 1.0080143,0.411597 1.4377298,0.675764 1.3075898,0.814012 2.3858824,1.970629 3.1138334,3.352062 0.119437,0.225079 0.170233,0.431272 0.279266,0.666057 0.210311,0.4805902 0.470335,0.970624 0.67905,1.4409827 0.209784,0.4603899 0.409676,0.9304869 0.709237,1.3129641 0.149396,0.2056678 0.749601,0.3134852 1.018704,0.4213036 0.199094,0.087878 0.509088,0.166055 0.688671,0.2738734 0.339653,0.205405 0.677981,0.4412395 0.997325,0.667107 0.159001,0.1175235 0.65874,0.3625404 0.6884,0.5587639 M 6.0774451,-14.065557 a 1.5553137,1.5267646 0 0 0 -0.4086074,0.04932 v 0.01968 h 0.019241 c 0.080385,0.156612 0.2202025,0.265217 0.3198851,0.401891 0.080385,0.157136 0.1501795,0.31296 0.2290105,0.469834 l 0.019241,-0.01941 c 0.1408156,-0.09785 0.2108528,-0.254723 0.2108528,-0.490034 -0.060716,-0.06926 -0.06998,-0.136937 -0.1205769,-0.205667 -0.058721,-0.09811 -0.1884049,-0.146906 -0.2691031,-0.225605"
     fill="#5d87a1"
     id="path846"
     style="fill:#ff521b;fill-opacity:1;stroke-width:0.264772" />
  <path
     d="m 17.211638,5.2771385 h 0.206833 V 4.2834306 h -0.310264 l -0.253069,0.6781242 -0.27499,-0.6781242 h -0.298762 v 0.9937079 h 0.195346 V 4.5211018 h 0.0114 l 0.288073,0.7560367 h 0.148854 L 17.21208,4.5211018 Z m -1.666228,0 h 0.218863 V 4.451846 H 16.05075 V 4.2831678 H 15.246904 V 4.451846 h 0.297979 z"
     fill="#f8981d"
     id="path848"
     style="fill:#ff521b;fill-opacity:1;stroke-width:0.264772" />
</svg>
