<?xml version="1.0" encoding="UTF-8" standalone="no"?>
<svg
   width="150"
   height="150"
   viewBox="0 0 150 150"
   fill="none"
   version="1.1"
   id="svg838"
   sodipodi:docname="react.svg"
   inkscape:version="1.1.1 (3bf5ae0d25, 2021-09-20)"
   xmlns:inkscape="http://www.inkscape.org/namespaces/inkscape"
   xmlns:sodipodi="http://sodipodi.sourceforge.net/DTD/sodipodi-0.dtd"
   xmlns="http://www.w3.org/2000/svg"
   xmlns:svg="http://www.w3.org/2000/svg">
  <defs
     id="defs842" />
  <sodipodi:namedview
     id="namedview840"
     pagecolor="#ffffff"
     bordercolor="#666666"
     borderopacity="1.0"
     inkscape:pageshadow="2"
     inkscape:pageopacity="0.0"
     inkscape:pagecheckerboard="0"
     showgrid="false"
     fit-margin-top="0"
     fit-margin-left="0"
     fit-margin-right="0"
     fit-margin-bottom="0"
     inkscape:zoom="1.8346154"
     inkscape:cx="64.591195"
     inkscape:cy="71.404612"
     inkscape:window-width="1366"
     inkscape:window-height="706"
     inkscape:window-x="-8"
     inkscape:window-y="-8"
     inkscape:window-maximized="1"
     inkscape:current-layer="svg838" />
  <path
     d="m 74.999954,90.2953 c 7.543156,0 13.658228,-6.848011 13.658228,-15.295273 0,-8.447263 -6.115072,-15.295274 -13.658228,-15.295274 -7.543156,0 -13.658227,6.848011 -13.658227,15.295274 0,8.447262 6.115071,15.295273 13.658227,15.295273 z"
     fill="#8257e6"
     id="path834"
     style="fill:#ff521b;stroke-width:2.49669;fill-opacity:1" />
  <path
     d="m 126.87697,49.776339 c -2.63582,-1.073214 -5.39148,-2.146691 -8.26676,-3.085686 0.71888,-3.220169 1.31791,-6.440075 1.79708,-9.526025 C 122.92325,19.454491 120.16759,6.97676 112.49986,2.146692 110.2236,0.670851 107.70765,0 104.83213,0 96.445525,0 85.782666,6.97676 74.999954,18.649448 64.217242,6.97676 53.554383,0 45.167777,0 42.292261,0 39.776303,0.670851 37.50005,2.146692 29.832323,7.110924 27.076659,19.588445 29.592618,37.164628 c 0.479174,3.08595 1.0782,6.305856 1.797079,9.526025 -2.87528,0.938995 -5.630943,1.878255 -8.266754,3.085686 C 8.146952,56.216412 0,65.071613 0,75.000027 0,84.92844 8.266757,93.78364 23.122943,100.22371 c 2.635811,1.07322 5.391474,2.1467 8.266754,3.08569 -0.718879,3.22017 -1.317905,6.44008 -1.797079,9.52603 -2.515959,17.71013 0.239705,30.18789 7.907432,35.01788 C 39.776303,149.32918 42.292261,150 45.167777,150 53.674,150 64.337095,143.02332 74.999954,131.3506 85.782666,143.02332 96.445525,150 104.83213,150 c 2.87552,0 5.39147,-0.67082 7.66773,-2.14669 7.66773,-4.96421 10.42339,-17.4417 7.90743,-35.01789 -0.47917,-3.08595 -1.0782,-6.30585 -1.79708,-9.52602 2.87528,-0.939 5.63094,-1.87826 8.26676,-3.08569 C 141.85286,93.78364 150,84.92844 150,75.000027 150,65.071613 141.85286,56.216412 126.87697,49.776339 Z M 109.14541,8.855095 c 4.91206,3.220036 6.58929,13.148476 4.5525,27.236055 -0.35932,2.817514 -0.95835,5.769249 -1.67722,8.855199 C 105.79072,43.336265 99.201189,42.263052 92.25234,41.592228 88.178772,35.152153 83.985587,29.382904 79.792166,24.150263 88.658182,14.355987 97.643814,7.647584 104.95198,7.647584 c 1.55761,0 2.99514,0.402521 4.19343,1.207511 z M 95.726882,88.41678 c -2.156636,4.293383 -4.672595,8.586764 -7.308405,12.88015 -4.43289,0.40265 -8.86578,0.53687 -13.418523,0.53687 -4.672595,0 -9.105485,-0.13422 -13.418522,-0.53687 -2.635811,-4.293386 -5.031917,-8.586767 -7.188554,-12.88015 -2.276253,-4.4276 -4.432889,-8.989153 -6.349821,-13.416753 1.916932,-4.427601 4.073568,-8.989154 6.349821,-13.416754 2.156637,-4.293383 4.672595,-8.586765 7.308406,-12.880148 4.43289,-0.402653 8.86578,-0.536606 13.418523,-0.536606 4.672359,0 9.105485,0.133953 13.418522,0.536606 2.635811,4.293383 5.031917,8.586765 7.188553,12.880148 2.276254,4.4276 4.432888,8.989153 6.349818,13.416754 -2.03678,4.4276 -4.073564,8.8552 -6.349818,13.416753 z m 9.943978,-4.4276 c 1.79708,4.696036 3.23484,9.257853 4.55274,13.819408 -4.07356,1.073477 -8.3866,1.878518 -12.939343,2.549342 1.437758,-2.549342 2.995133,-5.232641 4.313033,-8.050157 1.43776,-2.817516 2.75567,-5.635031 4.07357,-8.318593 z m -30.670906,36.3598 c -2.875515,-3.48834 -5.630943,-7.24512 -8.266753,-11.13611 2.755663,0.13422 5.51109,0.26843 8.266753,0.26843 2.755663,0 5.511091,-0.13422 8.266754,-0.26843 -2.635811,3.89099 -5.391474,7.64777 -8.266754,11.13611 z M 52.715652,100.22371 c -4.552743,-0.670821 -8.86578,-1.475862 -12.939349,-2.549339 1.317906,-4.427338 2.755663,-9.123373 4.552743,-13.819144 1.317905,2.683298 2.63581,5.500813 4.073568,8.184112 1.437522,2.951733 2.87528,5.501078 4.313038,8.184371 z M 44.329046,66.010873 c -1.79708,-4.696036 -3.234837,-9.25759 -4.552743,-13.819407 4.073569,-1.073478 8.386606,-1.87852 12.939349,-2.549345 -1.437758,2.549345 -2.995132,5.232642 -4.313038,8.050158 -1.437758,2.817516 -2.755663,5.635031 -4.073568,8.318594 z M 74.999954,29.651075 c 2.87528,3.488605 5.630943,7.245116 8.266754,11.13611 -2.755663,-0.134217 -5.511091,-0.268436 -8.266754,-0.268436 -2.755663,0 -5.51109,0.134219 -8.266753,0.268436 2.63581,-3.890994 5.391238,-7.647505 8.266753,-11.13611 z m 26.597336,28.175422 -4.313033,-8.050158 c 4.552743,0.670824 8.865783,1.475867 12.939343,2.549344 -1.3179,4.427336 -2.75566,9.123372 -4.55274,13.819143 -1.3179,-2.817516 -2.63581,-5.635031 -4.07357,-8.318329 z M 36.301997,36.09115 C 34.265213,22.003571 35.94244,12.075131 40.854504,8.855095 c 1.198288,-0.80499 2.63581,-1.207511 4.193421,-1.207511 7.188553,0 16.174185,6.574239 25.159582,16.502679 -4.193185,5.098424 -8.38637,11.00189 -12.459939,17.441965 -6.948848,0.670824 -13.538375,1.878256 -19.768344,3.354121 -0.718879,-3.08595 -1.198053,-6.037685 -1.677227,-8.855199 z M 6.709265,75.000027 c 0,-6.305856 6.829067,-13.014365 18.809784,-17.978572 2.396342,-1.073214 5.032152,-2.012474 7.667727,-2.817516 1.916932,6.708509 4.313274,13.819407 7.188554,20.930305 -2.87528,7.110898 -5.391238,14.087579 -7.188554,20.796088 C 16.65334,90.563471 6.709265,82.513578 6.709265,75.000027 Z m 34.145239,66.145033 c -4.912064,-3.22017 -6.589291,-13.14858 -4.552507,-27.23616 0.359322,-2.81751 0.958348,-5.76925 1.677227,-8.8552 6.229969,1.61009 12.819496,2.6833 19.768344,3.35413 4.073569,6.44007 8.266754,12.20932 12.459939,17.44196 -8.86578,9.7942 -17.851413,16.50271 -25.159582,16.50271 -1.557611,0 -2.995133,-0.40266 -4.193421,-1.20744 z M 113.69791,113.9089 c 2.03679,14.08758 0.35956,24.01599 -4.55251,27.23616 -1.19828,0.80478 -2.63581,1.20744 -4.19342,1.20744 -7.188549,0 -16.174182,-6.5743 -25.159814,-16.50271 4.193421,-5.09842 8.386606,-11.00189 12.460174,-17.44196 6.948849,-0.67083 13.53837,-1.87826 19.76834,-3.35413 0.71888,3.08595 1.19806,6.03769 1.67723,8.8552 z m 10.78295,-20.930301 c -2.39634,1.073212 -5.03215,2.012473 -7.66773,2.817514 -1.91693,-6.708509 -4.31327,-13.819406 -7.18855,-20.930304 2.87528,-7.110898 5.39124,-14.087579 7.18855,-20.796088 16.53351,5.36686 26.47749,13.417018 26.47749,20.930306 0,6.305855 -6.94885,13.014364 -18.80976,17.978572 z"
     fill="#8257e6"
     id="path836"
     style="fill:#ff521b;stroke-width:2.49669;fill-opacity:1" />
</svg>
