<?xml version="1.0" encoding="UTF-8" standalone="no"?>
<!-- Created with Inkscape (http://www.inkscape.org/) -->

<svg
   version="1.1"
   id="svg4739"
   width="150"
   height="150"
   viewBox="0 0 150 150"
   sodipodi:docname="springBoot.svg"
   inkscape:version="1.1.1 (3bf5ae0d25, 2021-09-20)"
   xmlns:inkscape="http://www.inkscape.org/namespaces/inkscape"
   xmlns:sodipodi="http://sodipodi.sourceforge.net/DTD/sodipodi-0.dtd"
   xmlns="http://www.w3.org/2000/svg"
   xmlns:svg="http://www.w3.org/2000/svg">
  <defs
     id="defs4743" />
  <sodipodi:namedview
     id="namedview4741"
     pagecolor="#ffffff"
     bordercolor="#666666"
     borderopacity="1.0"
     inkscape:pageshadow="2"
     inkscape:pageopacity="0.0"
     inkscape:pagecheckerboard="0"
     showgrid="false"
     inkscape:zoom="1.0975"
     inkscape:cx="200"
     inkscape:cy="199.54442"
     inkscape:window-width="1366"
     inkscape:window-height="706"
     inkscape:window-x="-8"
     inkscape:window-y="-8"
     inkscape:window-maximized="1"
     inkscape:current-layer="g4745" />
  <g
     inkscape:groupmode="layer"
     inkscape:label="Image"
     id="g4745">
    <path
       style="fill:#ff521b;fill-opacity:1;stroke:none;stroke-width:0.557338"
       d="m 42.870326,7.857675 c -12.26479,2.31379 -18.0639,19.04559 -23.56477,28.72098 -6.16923,10.85082 -18.1358474,24.6678 -19.25308744,37.34167 -0.602372,6.83297 4.11533004,12.78534 7.30475504,18.39217 5.4094124,9.509305 10.9914924,18.919415 16.4069824,28.424255 2.96616,5.20554 5.67092,11.69129 9.81306,16.06027 5.39837,5.69432 13.20891,5.67593 20.43982,5.67593 h 33.99764 c 5.98303,0 12.507234,0.72677 18.392174,-0.45033 13.14148,-2.62896 18.18149,-18.20378 24.30162,-28.53126 4.48268,-7.5642 8.84385,-15.211445 13.19666,-22.850885 2.19369,-3.85009 5.22951,-7.77041 5.87881,-12.26144 1.21165,-8.38181 -2.8898,-14.24613 -6.91379,-21.17886 -5.49034,-9.46026 -10.94891,-18.94114 -16.39912,-28.42426 -3.00071,-5.22059 -5.71718,-11.88557 -10.05606,-16.11075 -6.00643,-5.84882 -13.43074,-5.0681 -21.154894,-5.0681 h -34.55498 c -5.74393,0 -12.18118,-0.80597 -17.83482,0.26061 m 30.0985,22.31995 c 3.28272,-0.98259 6.79618,0.80591 7.58091,4.17391 2.34807,10.08169 0.21959,23.07436 0.21959,33.43807 0,4.07191 0.41968,8.80985 -4.45926,10.21768 -4.48769,1.2947 -7.28274,-3.00182 -7.7052,-6.87365 -1.10911,-10.16028 -0.11314,-20.98769 -0.097,-31.21095 0.006,-3.7024 0.18225,-8.46541 4.46094,-9.74506 m 22.8492,7.81054 c 3.70518,-0.22182 7.506794,3.85957 9.702704,6.40159 6.28566,7.27661 10.34532,16.48885 10.36092,26.18654 0.0362,22.64912 -15.26661,40.049225 -37.899014,42.756215 -25.22235,3.01632 -47.04604,-21.070175 -44.11611,-45.542905 1.1587,-9.67595 7.14006,-26.45685 17.92121,-29.29705 3.88743,-1.02439 8.22576,2.23158 6.73878,6.44618 -1.02272,2.89871 -4.05241,4.51834 -6.01424,6.70979 -3.1406,3.50901 -5.60683,7.70966 -6.90542,12.23971 -6.01926,20.99884 12.37625,40.696295 33.49046,38.359935 18.43787,-2.04042 30.273504,-22.368225 24.662784,-39.474615 -2.33023,-7.10439 -7.986104,-10.39603 -11.838984,-16.25756 -2.20873,-3.35963 -0.38624,-8.27201 3.89691,-8.52783 z"
       id="path4847" />
  </g>
</svg>
